<?xml version="1.0" encoding="UTF-8"?>
<svg id="Layer_2" data-name="Layer 2" xmlns="http://www.w3.org/2000/svg" viewBox="0 0 792.21 438.05">
  <defs>
    <style>
      .cls-1 {
        fill: none;
        stroke: #000d2b;
        stroke-miterlimit: 10;
        stroke-width: 30px;
      }

      .cls-2 {
        fill: #000d2b;
        font-family: Chillax-Bold, Chillax;
        font-size: 168.12px;
        font-weight: 700;
      }

      .cls-3 {
        fill: #04dd76;
      }
    </style>
  </defs>
  <g id="Logo">
    <path class="cls-1" d="m99.76,102.81c0-48.5,39.32-87.81,87.81-87.81s87.81,39.32,87.81,87.81"/>
    <path class="cls-3" d="m374.37,362.78h-47.55l.9,13.28c.19,3.9-1.11,7.44-3.74,10.23-2.67,2.81-6.27,4.36-10.13,4.36H61.29c-3.83,0-7.4-1.54-10.05-4.32-2.64-2.78-3.99-6.34-3.81-10.03l.93-14.8,13.14-208.68c.74-14.94,13.04-26.64,28.01-26.64h195.12c14.88,0,27.19,11.72,28.02,26.68l.95,14.05c15.84-.06,31.68-.15,47.51-.3l-1.12-16.61c-2.27-39.96-35.36-71.25-75.36-71.25H89.51c-40.22,0-73.31,31.39-75.36,71.47L1.22,355.91l-1.14,17.76c-.15,2.92-.09,5.75.16,8.42,1.16,13.94,6.92,26.7,16.64,36.92,9.98,10.47,22.78,16.9,36.96,18.58,2.46.3,4.97.46,7.45.46h252.56c17.01,0,32.82-6.8,44.53-19.16,11.68-12.37,17.61-28.58,16.7-45.64l-.71-10.48Z"/>
    <text class="cls-2" transform="translate(126.64 321.17)"><tspan x="0" y="0">SAHILLI</tspan></text>
  </g>
</svg>